<svg width="1426" height="305" viewBox="0 0 1426 305" fill="none" xmlns="http://www.w3.org/2000/svg">
<g clip-path="url(#clip0_2_24)">
<path d="M103.085 3.89651C75.4285 9.70512 43.1291 30.5731 27.1812 52.5167C-2.8976 94.0374 -7.94439 149.112 13.8577 196.226C20.9232 211.285 39.0916 234.95 46.7628 239.468C54.0301 243.555 112.169 220.536 126.906 207.843C138.412 197.947 135.788 187.19 119.235 175.358C97.0287 159.653 101.672 147.391 135.384 132.761C149.313 126.523 143.459 126.092 122.868 131.686C96.2213 139 83.0996 149.112 83.0996 162.45C83.0996 165.892 85.5221 173.637 88.3483 179.661C94.4044 192.353 92.9913 199.668 84.109 202.034C75.8322 204.186 68.5649 200.959 59.4807 190.848C47.1665 177.294 41.9178 158.147 43.1291 130.18C43.7347 111.678 44.744 107.376 51.0021 93.1769C63.5181 65.2096 84.109 47.5686 114.592 39.3935C123.676 36.8119 136.192 35.0909 144.469 35.306C157.994 35.5211 158.398 35.7363 150.727 37.4573C134.577 41.5449 120.244 46.4929 109.545 51.8713C97.6344 57.895 78.0528 76.1814 72.4004 86.5078L68.7667 92.9618L79.4659 96.4039C85.3202 98.5553 98.8456 100.491 109.545 101.137C132.76 102.643 149.112 98.125 169.702 85.217C183.833 76.1814 203.011 55.5285 211.49 40.2541C216.94 30.3579 216.94 30.1428 213.105 27.1309C204.222 19.6012 175.96 7.12352 161.426 3.89651C142.854 0.0241089 121.455 0.0241089 103.085 3.89651Z" fill="white"/>
<path d="M1284.23 142.658V248.073H1300.38H1316.53V208.273C1316.53 160.944 1318.35 149.542 1328.04 138.14C1339.35 124.802 1362.16 120.929 1375.08 130.395C1389.21 140.291 1390.22 144.594 1390.82 199.023L1391.43 248.073H1408.59H1425.54V205.477C1425.54 155.135 1423.32 137.279 1415.85 122.435C1402.73 96.1888 1367 86.0775 1336.72 99.8461C1331.27 102.428 1325.42 106.085 1323.4 108.451C1321.58 110.603 1319.16 112.539 1318.15 112.539C1317.34 112.539 1316.53 95.5434 1316.53 74.8906V37.2422H1300.38H1284.23V142.658Z" fill="white"/>
<path d="M1183.3 79.1933V97.4796H1171.19H1159.07V111.463V125.447H1170.98H1182.9L1183.7 171.055C1184.31 212.791 1184.71 217.524 1188.75 225.484C1190.97 230.217 1194.6 235.81 1196.82 237.747C1204.29 245.061 1218.42 250.224 1230.94 250.224C1245.07 250.224 1263.85 244.846 1265.46 240.543C1266.07 238.822 1264.45 232.153 1261.83 225.699C1257.59 214.512 1257.18 214.082 1253.15 217.094C1248.3 220.751 1233.97 221.181 1227.1 217.739C1218.83 213.652 1217.62 207.413 1217.62 165.247V125.447H1236.79H1255.97V110.818V96.4039L1236.79 97.0493L1217.62 97.9099V79.4084V60.9069H1200.46H1183.3V79.1933Z" fill="white"/>
<path d="M400.038 96.6191C371.978 104.794 352.598 126.738 347.349 156.641C340.889 193.859 359.462 230.432 391.559 244.201C401.047 248.073 407.103 248.934 426.281 249.149C448.487 249.149 450.102 248.934 462.82 242.264C469.885 238.392 478.162 232.799 480.786 229.787L485.631 224.408L475.74 213.652L466.05 203.11L459.388 208.704C439.806 224.408 411.746 223.978 393.78 207.628C386.916 201.174 379.851 189.772 379.851 184.609C379.851 183.963 405.286 183.533 436.375 183.533H492.899V171.055C492.899 144.379 481.19 118.993 463.425 106.945C444.449 94.0375 422.042 90.3802 400.038 96.6191ZM439.403 127.383C448.689 131.901 455.35 139 458.379 147.606C463.022 160.299 464.031 159.868 421.638 159.868C400.038 159.868 382.071 159.223 381.264 158.578C379.649 156.856 383.888 144.809 388.733 137.494C397.817 124.156 422.647 119.208 439.403 127.383Z" fill="white"/>
<path d="M563.554 95.5434C543.165 99.8461 522.776 116.196 513.288 135.773C503.396 156.641 503.598 187.405 514.095 209.349C520.555 222.687 536.705 238.177 551.038 244.201C560.526 248.073 566.582 248.934 585.759 249.149C607.965 249.149 609.58 248.934 622.298 242.264C629.364 238.392 637.64 232.799 640.265 229.787L645.11 224.408L635.218 213.652L625.528 203.11L619.068 208.273C605.947 219.03 585.961 222.902 569.004 217.739C556.488 214.082 541.348 197.302 541.348 186.76C541.348 183.963 548.009 183.533 596.862 183.533H652.377V171.055C652.377 132.762 631.382 103.718 598.477 96.4039C583.337 92.9618 576.877 92.7467 563.554 95.5434ZM599.083 127.383C608.773 132.116 617.453 143.088 619.27 152.984L620.683 159.868H579.703C543.366 159.868 539.127 159.438 540.137 156.426C540.742 154.49 541.348 151.693 541.348 149.972C541.348 145.454 555.681 129.535 562.544 126.308C571.427 122.22 589.393 122.65 599.083 127.383Z" fill="white"/>
<path d="M741.806 95.3282C731.511 97.6947 719.196 104.149 714.15 110.172C708.497 116.842 706.882 115.766 706.882 105.009V95.3282H690.733H674.583V171.701V248.073H691.54H708.699L709.305 201.174C709.91 160.514 710.314 153.414 713.746 146.315C719.398 134.052 730.905 126.953 746.045 125.877C762.599 125.017 770.674 129.534 777.537 143.948C782.382 154.06 782.584 156.426 783.19 201.174L783.997 248.073H799.945H815.893V202.25C815.893 141.152 812.663 124.371 798.33 109.957C786.016 97.4796 760.984 91.0256 741.806 95.3282Z" fill="white"/>
<path d="M912.185 95.5434C903.101 97.6947 894.017 102.643 885.337 109.312L879.079 114.26L879.28 105.44L879.482 96.4039L863.938 95.7585L848.192 95.1131V199.668V304.008H864.342H880.492V268.511C880.492 236.026 881.703 228.496 885.538 235.165C886.346 236.456 891.595 240.113 897.247 243.34C906.735 248.503 909.763 249.149 927.931 249.149C945.494 249.149 949.532 248.503 959.222 243.555C975.371 235.595 984.455 226.129 991.925 209.779C998.183 196.441 998.586 194.075 998.586 172.776C998.586 152.339 997.981 148.896 992.732 136.849C979.005 105.009 944.687 87.3683 912.185 95.5434ZM933.18 125.662C954.175 130.395 967.095 152.339 964.672 178.37C962.451 202.034 948.32 217.094 925.913 219.46C906.331 221.612 887.961 208.273 882.51 187.621C875.445 161.374 888.567 132.546 910.772 125.877C920.26 122.865 921.068 122.865 933.18 125.662Z" fill="white"/>
<path d="M1062.18 94.4677C1049.05 97.2645 1034.12 102.643 1026.24 107.376L1017.76 112.754L1024.22 125.232L1030.68 137.71L1043.4 131.471C1065.81 120.069 1092.25 121.144 1103.16 133.837C1107.4 138.785 1112.64 150.833 1112.64 155.781C1112.64 156.856 1104.77 157.717 1094.88 157.717C1070.45 157.717 1045.02 161.374 1035.93 166.322C1005.85 182.673 1006.26 226.775 1036.54 243.555C1055.92 254.097 1089.83 251.73 1106.59 238.392L1113.65 232.799L1114.26 240.328L1114.86 248.073H1130H1144.94V195.365C1144.94 147.606 1144.54 141.797 1140.7 131.04C1135.86 116.842 1123.14 103.718 1109.01 98.5553C1099.32 95.1131 1071.46 92.5315 1062.18 94.4677ZM1111.43 192.784C1111.43 205.477 1106.59 213.006 1094.48 219.46C1077.11 228.926 1054.5 224.408 1049.05 210.425C1043.6 196.871 1050.27 186.975 1067.22 182.888C1069.44 182.242 1080.34 182.027 1091.45 182.027L1111.63 182.457L1111.43 192.784Z" fill="white"/>
<path d="M256.709 171.701V248.073H273.666H290.825L291.431 202.25C292.036 157.072 292.036 156.641 297.487 146.53C304.149 134.483 316.059 127.598 329.988 127.598C340.486 127.598 339.274 130.395 340.284 104.364L340.687 95.3282H331.805C318.28 95.3282 307.984 99.4158 297.891 108.882L289.008 117.272V106.3V95.3282H272.859H256.709V171.701Z" fill="white"/>
<path d="M158.196 131.901C138.211 139.431 129.934 147.175 132.558 155.351C133.164 157.287 140.431 163.526 148.91 169.334C167.684 182.457 171.923 187.836 171.923 199.453C171.923 210.21 168.289 216.879 151.13 236.886C141.037 248.503 137.605 253.882 137.605 258.615C137.605 265.929 140.229 267.435 154.562 267.435C175.153 267.435 198.974 257.969 219.968 241.404L230.466 232.799V180.306V127.598L199.781 127.813C174.951 127.813 166.876 128.674 158.196 131.901Z" fill="white"/>
</g>
<defs>
<clipPath id="clip0_2_24">
<rect width="1426" height="305" fill="white"/>
</clipPath>
</defs>
</svg>
